<?xml version="1.0" standalone="no"?>
<!DOCTYPE svg PUBLIC "-//W3C//DTD SVG 20010904//EN"
 "http://www.w3.org/TR/2001/REC-SVG-20010904/DTD/svg10.dtd">
<svg version="1.0" xmlns="http://www.w3.org/2000/svg"
 width="512.000000pt" height="512.000000pt" viewBox="0 0 512.000000 512.000000"
 preserveAspectRatio="xMidYMid meet">
<metadata>
Created by potrace 1.14, written by Peter Selinger 2001-2017
</metadata>
<g transform="translate(0.000000,512.000000) scale(0.100000,-0.100000)"
fill="#000000" stroke="none">
<path d="M3038 4526 c-24 -13 -117 -72 -208 -133 -353 -234 -484 -318 -493
-315 -5 1 -163 105 -351 231 -326 217 -343 227 -393 230 -58 2 -107 -15 -145
-50 -40 -38 -48 -58 -123 -304 -20 -66 -38 -125 -40 -132 -4 -13 -17 -10 -235
57 -134 41 -272 83 -280 85 -3 1 -32 9 -64 19 -72 21 -131 17 -180 -13 -54
-34 -86 -81 -92 -138 -7 -53 -3 -69 49 -218 20 -55 58 -164 86 -243 35 -100
47 -144 38 -147 -7 -2 -119 -40 -249 -84 -131 -43 -251 -89 -267 -100 -62 -44
-92 -163 -58 -231 15 -29 73 -105 193 -253 l42 -50 -122 -61 c-88 -44 -122
-66 -124 -81 -2 -13 40 -78 114 -179 105 -144 116 -161 104 -180 -7 -11 -43
-58 -79 -105 -75 -96 -92 -130 -93 -187 -1 -79 56 -161 129 -185 34 -11 188
-8 223 5 8 2 42 7 76 10 33 2 64 6 70 7 27 5 42 -6 74 -54 19 -28 41 -58 48
-66 15 -15 11 -83 -12 -206 -5 -27 -22 -143 -44 -290 -4 -27 -7 -77 -7 -110 1
-51 6 -68 30 -102 17 -23 46 -51 65 -62 78 -44 153 -30 280 53 46 30 88 52 93
49 6 -3 7 -1 4 4 -7 10 20 28 35 25 5 -1 8 2 8 7 0 10 71 46 83 43 5 -1 6 2 2
7 -7 12 49 43 60 33 5 -4 5 -1 1 6 -4 7 -1 12 8 12 9 0 16 5 16 11 0 6 7 8 17
5 10 -4 14 -4 10 0 -9 10 44 45 56 37 6 -4 7 -1 2 7 -6 10 -4 12 9 7 10 -4 15
-3 11 3 -3 5 3 14 14 19 16 9 21 6 34 -27 9 -20 23 -54 31 -74 9 -21 16 -41
15 -44 0 -4 3 -10 8 -13 5 -3 31 -55 58 -116 28 -60 62 -124 78 -141 47 -55
114 -75 202 -62 26 4 36 11 107 83 32 33 64 59 69 57 6 -1 8 2 4 8 -4 6 12 29
34 53 22 23 49 53 60 65 11 13 24 21 29 18 6 -3 9 0 8 8 -1 16 133 168 144
161 4 -3 7 3 6 12 -2 28 27 26 98 -7 37 -16 68 -30 70 -30 2 0 30 -12 62 -27
33 -15 61 -27 64 -28 12 -4 67 -26 85 -35 11 -5 74 -32 140 -60 66 -28 122
-56 126 -61 3 -6 8 -10 10 -8 8 4 55 -14 169 -63 63 -28 131 -57 150 -65 19
-8 42 -18 50 -22 25 -13 119 -4 146 13 13 9 30 14 36 10 7 -4 8 -3 4 5 -4 6
-1 14 7 17 9 3 21 19 27 35 7 16 15 27 19 25 4 -3 7 3 8 12 3 49 8 72 18 72 5
0 4 4 -2 8 -7 4 -14 29 -15 55 -2 26 -6 47 -10 47 -4 0 -6 15 -4 34 1 19 -1
33 -4 31 -3 -2 -11 18 -16 45 l-10 48 70 -24 c39 -14 80 -29 91 -34 32 -14
213 -80 221 -80 3 0 20 -6 37 -14 75 -33 90 -37 145 -37 109 0 194 88 187 195
-4 57 -7 76 -18 93 -4 6 -8 23 -9 37 -1 14 -6 26 -10 26 -4 0 -8 8 -8 18 0 10
-5 23 -11 29 -12 12 -4 48 9 40 18 -12 522 -18 561 -7 44 12 121 79 121 105 0
8 4 15 9 15 5 0 8 28 6 63 -3 57 -12 81 -125 302 -68 132 -126 245 -130 250
-10 12 24 57 35 47 5 -4 5 -1 1 6 -5 8 1 20 14 32 12 10 21 22 21 27 -1 4 5
16 13 25 8 9 20 26 26 37 6 12 16 18 22 15 7 -4 8 -3 4 5 -4 6 4 26 18 44 15
17 30 37 34 42 4 6 11 18 15 28 3 9 11 17 17 17 5 0 10 7 10 15 0 8 3 15 8 15
15 0 52 99 52 139 0 92 -41 141 -183 219 -54 29 -97 54 -97 55 0 5 43 116 55
144 8 17 15 34 15 38 0 4 6 21 14 38 35 83 36 86 21 101 -15 15 -12 27 25 111
22 50 41 113 43 145 10 116 -103 222 -221 206 -187 -26 -279 -37 -319 -41 -27
-3 -63 -7 -81 -10 l-33 -5 7 83 c4 45 12 85 18 89 8 5 7 8 -2 8 -7 0 -11 3 -9
8 7 11 21 188 20 253 -1 106 -68 181 -172 194 -33 4 -69 -5 -179 -46 -169 -63
-224 -84 -377 -144 -66 -25 -127 -48 -135 -50 -8 -2 -24 -7 -36 -10 -20 -6
-21 -3 -20 64 1 39 -1 71 -4 71 -3 0 -6 24 -7 53 -4 82 -12 118 -34 154 -51
82 -167 114 -251 69z"/>
<path d="M4273 3875 c0 -8 4 -12 9 -9 5 3 6 10 3 15 -9 13 -12 11 -12 -6z"/>
<path d="M4910 2400 c0 -5 5 -10 10 -10 6 0 10 5 10 10 0 6 -4 10 -10 10 -5 0
-10 -4 -10 -10z"/>
<path d="M4755 2201 c-3 -5 -2 -12 3 -15 5 -3 9 1 9 9 0 17 -3 19 -12 6z"/>
<path d="M630 1640 c0 -5 5 -10 10 -10 6 0 10 5 10 10 0 6 -4 10 -10 10 -5 0
-10 -4 -10 -10z"/>
<path d="M4513 1405 c0 -8 4 -12 9 -9 5 3 6 10 3 15 -9 13 -12 11 -12 -6z"/>
<path d="M4676 1398 c3 -5 10 -6 15 -3 13 9 11 12 -6 12 -8 0 -12 -4 -9 -9z"/>
<path d="M1316 1082 c-3 -5 1 -9 9 -9 8 0 12 4 9 9 -3 4 -7 8 -9 8 -2 0 -6 -4
-9 -8z"/>
<path d="M2395 1061 c-3 -5 -2 -12 3 -15 5 -3 9 1 9 9 0 17 -3 19 -12 6z"/>
<path d="M2716 1007 c3 -10 9 -15 12 -12 3 3 0 11 -7 18 -10 9 -11 8 -5 -6z"/>
<path d="M4196 998 c3 -5 10 -6 15 -3 13 9 11 12 -6 12 -8 0 -12 -4 -9 -9z"/>
<path d="M1226 922 c-3 -5 1 -9 9 -9 8 0 12 4 9 9 -3 4 -7 8 -9 8 -2 0 -6 -4
-9 -8z"/>
<path d="M2075 920 c-3 -5 -1 -10 4 -10 6 0 11 5 11 10 0 6 -2 10 -4 10 -3 0
-8 -4 -11 -10z"/>
<path d="M2153 915 c0 -8 4 -12 9 -9 5 3 6 10 3 15 -9 13 -12 11 -12 -6z"/>
<path d="M3229 803 c-13 -16 -12 -17 4 -4 16 13 21 21 13 21 -2 0 -10 -8 -17
-17z"/>
<path d="M1946 762 c-3 -5 1 -9 9 -9 8 0 12 4 9 9 -3 4 -7 8 -9 8 -2 0 -6 -4
-9 -8z"/>
</g>
</svg>
